<svg xmlns="http://www.w3.org/2000/svg" viewBox="0 0 200 260">
  <defs>
    <radialGradient id="bg4" cx="50%" cy="30%" r="70%">
      <stop offset="0%" stop-color="#333"/>
      <stop offset="100%" stop-color="#0a0a0a"/>
    </radialGradient>
    <linearGradient id="s4" x1="0" y1="0" x2="0" y2="1">
      <stop offset="0%" stop-color="#FFD100" stop-opacity="0"/>
      <stop offset="100%" stop-color="#E30613" stop-opacity="0.3"/>
    </linearGradient>
  </defs>
  <rect width="200" height="260" fill="url(#bg4)"/>
  <g transform="translate(40,18)" fill="#ddd" stroke="none">
    <ellipse cx="60" cy="60" rx="36" ry="44" fill="#c0c0c0"/>
    <path d="M20 40 Q25 12 60 10 Q95 12 100 40" fill="#222"/>
    <rect x="26" y="42" width="68" height="6" rx="3" fill="#222"/>
    <ellipse cx="60" cy="40" rx="28" ry="16" fill="#333"/>
    <circle cx="48" cy="54" r="4" fill="#111"/>
    <circle cx="72" cy="54" r="4" fill="#111"/>
    <path d="M48 70 Q60 74 72 70" stroke="#555" stroke-width="2" fill="none"/>
    <rect x="15" y="42" width="40" height="5" rx="2" fill="#333" transform="rotate(5,35,44)"/>
    <rect x="65" y="42" width="40" height="5" rx="2" fill="#333" transform="rotate(-5,85,44)"/>
    <rect x="34" y="92" width="52" height="72" rx="6" fill="#bbb"/>
    <path d="M34 98 L14 102 L16 132 L34 124 Z" fill="#bbb"/>
    <path d="M86 98 L106 102 L104 132 L86 124 Z" fill="#bbb"/>
    <path d="M40 92 Q60 102 80 92 L78 108 Q60 100 42 108 Z" fill="#E30613" opacity="0.85"/>
  </g>
  <rect x="0" y="200" width="200" height="60" fill="url(#s4)"/>
  <line x1="0" y1="200" x2="200" y2="200" stroke="#E30613" stroke-width="4"/>
  <text x="100" y="235" text-anchor="middle" font-family="'Anton','Impact',sans-serif" font-size="14" fill="#FFD100" letter-spacing="3" font-weight="400">AXEL KICILLOF</text>
  <text x="100" y="252" text-anchor="middle" font-family="'Special Elite',monospace" font-size="9" fill="#E30613" letter-spacing="2">1971 · GOBERNADOR K</text>
</svg>