<svg xmlns="http://www.w3.org/2000/svg" viewBox="0 0 200 260">
  <defs>
    <radialGradient id="bg7" cx="50%" cy="30%" r="70%">
      <stop offset="0%" stop-color="#333"/>
      <stop offset="100%" stop-color="#0a0a0a"/>
    </radialGradient>
    <linearGradient id="s7" x1="0" y1="0" x2="0" y2="1">
      <stop offset="0%" stop-color="#FFD100" stop-opacity="0"/>
      <stop offset="100%" stop-color="#E30613" stop-opacity="0.35"/>
    </linearGradient>
  </defs>
  <rect width="200" height="260" fill="url(#bg7)"/>
  <g transform="translate(40,14)" fill="#ddd" stroke="none">
    <ellipse cx="60" cy="56" rx="34" ry="42" fill="#c8c8c8"/>
    <path d="M26 32 Q26 6 60 2 Q94 6 94 32 L94 45 Q92 55 82 55 L38 55 Q28 55 26 45 Z" fill="#333"/>
    <path d="M26 35 Q30 12 60 8 Q90 12 94 35" fill="#444"/>
    <path d="M26 32 Q24 40 20 42 Q22 36 26 34" fill="#555"/>
    <path d="M94 32 Q96 40 100 42 Q98 36 94 34" fill="#555"/>
    <path d="M26 30 Q20 26 18 30 Q16 35 22 38" fill="#444"/>
    <path d="M94 30 Q100 26 102 30 Q104 35 98 38" fill="#444"/>
    <ellipse cx="48" cy="50" rx="5" ry="3" fill="#eee"/>
    <ellipse cx="72" cy="50" rx="5" ry="3" fill="#eee"/>
    <circle cx="48" cy="50" r="2.5" fill="#222"/>
    <circle cx="72" cy="50" r="2.5" fill="#222"/>
    <path d="M50 63 Q60 58 70 63" stroke="#444" stroke-width="1.5" fill="none"/>
    <path d="M55 68 L60 72 L65 68" stroke="#c07070" stroke-width="1" fill="none"/>
    <rect x="34" y="90" width="52" height="72" rx="6" fill="#bbb"/>
    <path d="M34 95 L16 100 L18 130 L34 124 Z" fill="#bbb"/>
    <path d="M86 95 L104 100 L102 130 L86 124 Z" fill="#bbb"/>
    <path d="M38 88 Q60 100 82 88 L80 106 Q60 102 40 106 Z" fill="#E30613" opacity="0.85"/>
    <path d="M8 60 L16 40 L18 42 L12 58 Z" fill="#c8c8c8"/>
    <path d="M18 42 L24 24 L28 26 L20 44 Z" fill="#bbb"/>
    <path d="M24 24 L26 16 L30 18 L28 26 Z" fill="#ccc"/>
    <path d="M6 62 Q4 58 8 56" stroke="#bbb" stroke-width="2" fill="none"/>
    <path d="M112 60 L104 40 L102 42 L108 58 Z" fill="#c8c8c8"/>
    <path d="M102 42 L96 24 L92 26 L100 44 Z" fill="#bbb"/>
    <path d="M96 24 L94 16 L90 18 L92 26 Z" fill="#ccc"/>
    <path d="M114 62 Q116 58 112 56" stroke="#bbb" stroke-width="2" fill="none"/>
  </g>
  <rect x="0" y="200" width="200" height="60" fill="url(#s7)"/>
  <line x1="0" y1="200" x2="200" y2="200" stroke="#E30613" stroke-width="4"/>
  <text x="100" y="235" text-anchor="middle" font-family="'Anton','Impact',sans-serif" font-size="14" fill="#FFD100" letter-spacing="3" font-weight="400">EVA PERON</text>
  <text x="100" y="252" text-anchor="middle" font-family="'Special Elite',monospace" font-size="9" fill="#E30613" letter-spacing="1">1919 · 1952 · SANTA POPULAR</text>
</svg>