<svg xmlns="http://www.w3.org/2000/svg" viewBox="0 0 200 260">
  <defs>
    <radialGradient id="bg9" cx="50%" cy="30%" r="70%">
      <stop offset="0%" stop-color="#333"/>
      <stop offset="100%" stop-color="#0a0a0a"/>
    </radialGradient>
    <linearGradient id="s9" x1="0" y1="0" x2="0" y2="1">
      <stop offset="0%" stop-color="#FFD100" stop-opacity="0"/>
      <stop offset="100%" stop-color="#E30613" stop-opacity="0.3"/>
    </linearGradient>
  </defs>
  <rect width="200" height="260" fill="url(#bg9)"/>
  <g transform="translate(38,16)" fill="#ddd" stroke="none">
    <ellipse cx="62" cy="52" rx="36" ry="42" fill="#bbb"/>
    <ellipse cx="62" cy="36" rx="34" ry="22" fill="#333"/>
    <rect x="28" y="28" width="68" height="10" rx="5" fill="#333"/>
    <circle cx="50" cy="48" r="4" fill="#222"/>
    <circle cx="74" cy="48" r="4" fill="#222"/>
    <path d="M50 64 Q62 70 74 64" stroke="#444" stroke-width="2" fill="none"/>
    <rect x="28" y="24" width="68" height="16" rx="4" fill="#FFD100" opacity="0.6"/>
    <path d="M28 28 L32 24 L32 40 L28 36 Z" fill="#c8a800" opacity="0.7"/>
    <path d="M96 28 L92 24 L92 40 L96 36 Z" fill="#c8a800" opacity="0.7"/>
    <rect x="42" y="26" width="4" height="2" rx="1" fill="#8B6914"/>
    <rect x="78" y="26" width="4" height="2" rx="1" fill="#8B6914"/>
    <path d="M58 26 L62 22 L66 26" fill="#8B6914"/>
    <rect x="26" y="90" width="72" height="80" rx="6" fill="#888"/>
    <rect x="22" y="86" width="80" height="10" rx="3" fill="#999"/>
    <rect x="24" y="96" width="16" height="70" rx="6" fill="#bbb"/>
    <rect x="84" y="96" width="16" height="70" rx="6" fill="#bbb"/>
    <path d="M42 96 L46 94 L80 94 L84 96" stroke="#777" stroke-width="2" fill="none"/>
    <line x1="50" y1="94" x2="50" y2="170" stroke="#777" stroke-width="1"/>
    <line x1="76" y1="94" x2="76" y2="170" stroke="#777" stroke-width="1"/>
    <rect x="36" y="170" width="14" height="6" rx="2" fill="#aaa"/>
    <rect x="76" y="170" width="14" height="6" rx="2" fill="#aaa"/>
  </g>
  <rect x="0" y="200" width="200" height="60" fill="url(#s9)"/>
  <line x1="0" y1="200" x2="200" y2="200" stroke="#E30613" stroke-width="4"/>
  <text x="100" y="235" text-anchor="middle" font-family="'Anton','Impact',sans-serif" font-size="12" fill="#FFD100" letter-spacing="2" font-weight="400">JOSE RUCCI</text>
  <text x="100" y="252" text-anchor="middle" font-family="'Special Elite',monospace" font-size="9" fill="#E30613" letter-spacing="2">1924 · 1973 · MARTIR GREMIAL</text>
</svg>